Exact Audio Copy V1.0 beta 3 from 29. August 2011

Отчёт EAC об извлечении, выполненном 16. октября 2014, 21:23

Пикник / Чужестранец

Дисковод: ASUS    DRW-24B3ST   Adapter: 3  ID: 0

Режим чтения                 : Достоверность
Использование точного потока : Да
Отключение кэша аудио        : Да
Использование указателей C2  : Нет

Коррекция смещения при чтении                     : 6
Способность читать области Lead-in и Lead-out     : Нет
Заполнение пропущенных сэмплов тишиной            : Да
Удаление блоков с тишиной в начале и конце        : Нет
При вычислениях CRC использовались нулевые сэмплы : Да
Интерфейс                                         : Встроенный Win32-интерфейс для Win NT/2000
Обработка зазоров                                 : Добавлено к предыдущему треку

Выходной формат          : Пользовательский кодировщик
Выбранный битрейт        : 1024 kBit/s
Качество                 : Высокий
Добавление ID3-тега      : Нет
Утилита сжатия           : C:\Program Files (x86)\FLAC\flac.exe
Дополнительные параметры : -V -8 -T "Genre=%genre%" -T "Artist=%artist%" -T "Title=%title%" -T "Album=%albumtitle%" -T "Date=%year%" -T "Tracknumber=%tracknr%" -T "Comment=%comment%" %source%


TOC извлечённого CD

     Трек |   Старт  | Длительность | Начальный сектор | Конечный сектор 
    ---------------------------------------------------------------------
       1  |  0:00.00 |    3:57.31   |           0      |      17805      
       2  |  3:57.31 |    3:52.25   |       17806      |      35230      
       3  |  7:49.56 |    3:54.32   |       35231      |      52812      
       4  | 11:44.13 |    4:17.36   |       52813      |      72123      
       5  | 16:01.49 |    4:12.60   |       72124      |      91083      
       6  | 20:14.34 |    3:08.37   |       91084      |     105220      
       7  | 23:22.71 |    4:36.13   |      105221      |     125933      
       8  | 27:59.09 |    3:27.58   |      125934      |     141516      
       9  | 31:26.67 |    4:09.53   |      141517      |     160244      
      10  | 35:36.45 |    4:13.37   |      160245      |     179256      
      11  | 39:50.07 |    4:15.32   |      179257      |     198413      
      12  | 44:05.39 |    4:17.19   |      198414      |     217707      
      13  | 48:22.58 |    3:15.41   |      217708      |     232373      


Трек  1

     Имя файла G:\MUSIC\RUSSIAN\Пикник\2014 - Чужестранец\Пикник - 2014 - Чужестранец - 01 - Кем бы ты ни был.wav

     Длина предзазора  0:00:02.00

     Пиковый уровень 96.6 %
     Скорость извлечения 5.3 X
     Качество трека 100.0 %
     CRC копии A1B572A6
     Копирование... OK

Трек  2

     Имя файла G:\MUSIC\RUSSIAN\Пикник\2014 - Чужестранец\Пикник - 2014 - Чужестранец - 02 - Чужестранец.wav

     Пиковый уровень 96.6 %
     Скорость извлечения 6.1 X
     Качество трека 100.0 %
     CRC копии BA3EC0FD
     Копирование... OK

Трек  3

     Имя файла G:\MUSIC\RUSSIAN\Пикник\2014 - Чужестранец\Пикник - 2014 - Чужестранец - 03 - Потерянный.wav

     Пиковый уровень 96.6 %
     Скорость извлечения 6.6 X
     Качество трека 100.0 %
     CRC копии E2CFFCCA
     Копирование... OK

Трек  4

     Имя файла G:\MUSIC\RUSSIAN\Пикник\2014 - Чужестранец\Пикник - 2014 - Чужестранец - 04 - Азбука Морзе.wav

     Пиковый уровень 94.7 %
     Скорость извлечения 7.1 X
     Качество трека 100.0 %
     CRC копии 26EB2972
     Копирование... OK

Трек  5

     Имя файла G:\MUSIC\RUSSIAN\Пикник\2014 - Чужестранец\Пикник - 2014 - Чужестранец - 05 - Мотылёк.wav

     Пиковый уровень 96.6 %
     Скорость извлечения 7.4 X
     Качество трека 100.0 %
     CRC копии AA3B8BC7
     Копирование... OK

Трек  6

     Имя файла G:\MUSIC\RUSSIAN\Пикник\2014 - Чужестранец\Пикник - 2014 - Чужестранец - 06 - Песня эмигранта.wav

     Пиковый уровень 85.7 %
     Скорость извлечения 7.5 X
     Качество трека 100.0 %
     CRC копии 08AD8BF1
     Копирование... OK

Трек  7

     Имя файла G:\MUSIC\RUSSIAN\Пикник\2014 - Чужестранец\Пикник - 2014 - Чужестранец - 07 - Танго ''Чёрная каракатица''.wav

     Пиковый уровень 96.5 %
     Скорость извлечения 8.2 X
     Качество трека 100.0 %
     CRC копии 21519930
     Копирование... OK

Трек  8

     Имя файла G:\MUSIC\RUSSIAN\Пикник\2014 - Чужестранец\Пикник - 2014 - Чужестранец - 08 - Бетховен.wav

     Пиковый уровень 85.7 %
     Скорость извлечения 8.2 X
     Качество трека 100.0 %
     CRC копии 0E809897
     Копирование... OK

Трек  9

     Имя файла G:\MUSIC\RUSSIAN\Пикник\2014 - Чужестранец\Пикник - 2014 - Чужестранец - 09 - Вот и я не иду до конца.wav

     Пиковый уровень 96.6 %
     Скорость извлечения 8.8 X
     Качество трека 100.0 %
     CRC копии 6BF57FB1
     Копирование... OK

Трек 10

     Имя файла G:\MUSIC\RUSSIAN\Пикник\2014 - Чужестранец\Пикник - 2014 - Чужестранец - 10 - Письмо (неотправленное...).wav

     Пиковый уровень 77.4 %
     Скорость извлечения 9.1 X
     Качество трека 100.0 %
     CRC копии 960B1AD4
     Копирование... OK

Трек 11

     Имя файла G:\MUSIC\RUSSIAN\Пикник\2014 - Чужестранец\Пикник - 2014 - Чужестранец - 11 - Мотылек (калифорнийский микс).wav

     Пиковый уровень 77.9 %
     Скорость извлечения 9.5 X
     Качество трека 100.0 %
     CRC копии C3134C71
     Копирование... OK

Трек 12

     Имя файла G:\MUSIC\RUSSIAN\Пикник\2014 - Чужестранец\Пикник - 2014 - Чужестранец - 12 - Азбука Морзе (сингл микс).wav

     Пиковый уровень 82.4 %
     Скорость извлечения 9.8 X
     Качество трека 100.0 %
     CRC копии 792188E5
     Копирование... OK

Трек 13

     Имя файла G:\MUSIC\RUSSIAN\Пикник\2014 - Чужестранец\Пикник - 2014 - Чужестранец - 13 - Азбука Морзе.wav

     Пиковый уровень 69.2 %
     Скорость извлечения 8.3 X
     Качество трека 99.9 %
     CRC копии 1C7E3EE8
     Копирование... OK

Ошибок не произошло

Конец отчёта

==== Контрольная сумма отчёта 54A4EFEB6C70F844CBED2EF7937E8BF0EC03CED04FD3D010CF081A2C440D2C72 ====
